<svg xmlns="http://www.w3.org/2000/svg" version="1.0" width="225.000000pt" height="224.000000pt" viewBox="0 0 225.000000 224.000000" preserveAspectRatio="xMidYMid meet">
<metadata>
Created by potrace 1.16, written by Peter Selinger 2001-2019
</metadata>
<g id="logo-svg" transform="translate(0.000000,224.000000) scale(0.100000,-0.100000)" fill="#000" stroke="none">
<path d="M982 2230 c-380 -54 -701 -285 -865 -623 -58 -118 -83 -203 -104 -351 -14 -101 -15 -135 -5 -235 26 -266 137 -503 320 -688 433 -435 1160 -436 1592 -1 283 284 391 686 289 1075 -105 402 -444 724 -851 807 -96 20 -291 28 -376 16z m329 -55 c219 -38 416 -141 574 -298 220 -221 327 -500 312 -811 -13 -273 -118 -508 -311 -702 -319 -318 -802 -403 -1214 -213 -294 135 -510 394 -591 709 -29 109 -38 297 -22 411 67 452 424 823 874 904 98 18 277 18 378 0z"/>
<path d="M920 2141 c-183 -40 -355 -135 -475 -261 l-40 -42 67 46 c243 169 574 212 863 114 243 -83 466 -290 564 -523 50 -120 65 -203 65 -350 1 -151 -17 -241 -69 -362 l-25 -58 25 30 c40 48 113 203 136 290 31 113 32 336 1 446 -88 322 -343 574 -667 660 -116 31 -329 36 -445 10z"/>
<path d="M865 2016 c-306 -48 -580 -254 -706 -531 -58 -130 -74 -205 -74 -370 0 -162 15 -236 70 -362 22 -50 102 -183 110 -183 2 0 -10 32 -26 71 -45 111 -59 175 -66 299 -7 136 5 224 47 346 72 212 226 389 457 527 176 105 245 128 399 135 99 3 135 1 200 -16 86 -22 300 -120 383 -177 78 -52 56 -19 -38 57 -217 175 -481 246 -756 204z"/>
<path d="M1036 1644 l-48 -42 16 -64 c20 -81 21 -216 1 -293 -16 -64 -84 -207 -100 -212 -15 -4 -83 93 -96 138 -11 35 -10 40 18 76 68 88 105 179 118 292 7 64 7 64 -16 57 -13 -4 -107 -9 -209 -12 l-185 -4 -13 -25 c-7 -14 -22 -60 -32 -102 -46 -179 -7 -432 90 -583 18 -28 34 -49 35 -48 2 2 17 37 35 79 l32 76 -26 51 c-14 28 -26 55 -26 60 0 7 42 32 55 32 2 0 19 -28 37 -62 37 -71 152 -198 178 -198 22 0 119 102 150 158 13 23 26 42 29 42 3 0 18 -19 33 -43 32 -50 115 -139 145 -155 17 -10 28 -7 61 18 l41 29 43 -19 c58 -26 146 -26 199 0 135 70 194 370 119 613 l-21 67 -54 -37 c-43 -30 -54 -42 -49 -58 3 -11 12 -45 21 -75 8 -30 15 -93 16 -140 0 -152 -47 -255 -123 -266 -59 -8 -62 3 -25 81 40 82 79 215 90 299 l7 59 -29 -7 c-105 -26 -97 -20 -111 -90 -6 -35 -24 -97 -39 -137 l-27 -73 -13 32 c-30 74 -34 228 -7 314 3 12 -12 28 -55 57 l-59 41 -11 -31 c-6 -17 -16 -68 -22 -115 -14 -101 -2 -207 35 -315 21 -61 22 -69 7 -55 -26 23 -67 111 -85 182 -20 77 -21 250 -2 322 8 28 11 52 6 52 -4 0 -25 17 -47 38 l-39 38 -48 -42z m-216 -174 c0 -5 -7 -25 -16 -43 -16 -33 -17 -34 -53 -22 -20 7 -51 16 -70 20 l-34 7 5 -95 5 -95 -32 -15 -33 -16 -7 35 c-6 37 -1 97 16 176 l11 46 89 0 c50 0 93 3 96 6 10 9 23 7 23 -4z"/>
<path d="M2006 1614 c54 -122 68 -198 69 -359 0 -161 -9 -212 -62 -343 -85 -215 -269 -404 -491 -504 -121 -55 -241 -80 -387 -80 -219 -1 -412 60 -575 179 -26 19 -21 11 20 -31 180 -186 486 -290 755 -256 130 16 197 35 310 89 165 79 286 185 386 339 157 240 182 570 64 839 -23 52 -102 183 -111 183 -1 0 8 -25 22 -56z"/>
<path d="M336 1478 c-106 -171 -139 -284 -140 -483 0 -114 3 -155 21 -220 59 -218 195 -409 382 -534 361 -244 865 -204 1177 94 l69 66 -61 -41 c-91 -60 -220 -117 -320 -142 -133 -33 -341 -31 -477 5 -162 43 -294 117 -419 236 -175 164 -273 381 -285 626 -6 134 17 262 70 385 19 44 33 80 32 80 -2 0 -24 -33 -49 -72z"/>
</g>
</svg>
